<?xml version="1.0" encoding="UTF-8" standalone="no"?>
<!-- Created with Inkscape (http://www.inkscape.org/) -->

<svg
   xmlns:dc="http://purl.org/dc/elements/1.1/"
   xmlns:cc="http://creativecommons.org/ns#"
   xmlns:rdf="http://www.w3.org/1999/02/22-rdf-syntax-ns#"
   xmlns:svg="http://www.w3.org/2000/svg"
   xmlns="http://www.w3.org/2000/svg"
   xmlns:xlink="http://www.w3.org/1999/xlink"
   xmlns:sodipodi="http://sodipodi.sourceforge.net/DTD/sodipodi-0.dtd"
   xmlns:inkscape="http://www.inkscape.org/namespaces/inkscape"
   width="1024"
   height="1024"
   id="svg2"
   version="1.1"
   inkscape:version="0.48.3.1 r9886"
   sodipodi:docname="Kana-Logo-Android.svg"
   inkscape:export-filename="/home/jair/src/kana/assets/icon/Kana-Logo-Pink.png"
   inkscape:export-xdpi="32.82"
   inkscape:export-ydpi="32.82">
  <defs
     id="defs4">
    <linearGradient
       id="linearGradient3902">
      <stop
         style="stop-color:#ffffff;stop-opacity:1;"
         offset="0"
         id="stop3904" />
      <stop
         style="stop-color:#fff9f9;stop-opacity:0.72868216;"
         offset="1"
         id="stop3906" />
    </linearGradient>
    <linearGradient
       id="linearGradient4110">
      <stop
         style="stop-color:#0eb0fb;stop-opacity:1;"
         offset="0"
         id="stop4112" />
      <stop
         style="stop-color:#ff00f3;stop-opacity:1;"
         offset="1"
         id="stop4114" />
    </linearGradient>
    <inkscape:perspective
       sodipodi:type="inkscape:persp3d"
       inkscape:vp_x="0 : 512 : 1"
       inkscape:vp_y="0 : 1000 : 0"
       inkscape:vp_z="1024 : 512 : 1"
       inkscape:persp3d-origin="512 : 341.33333 : 1"
       id="perspective4094" />
    <linearGradient
       id="linearGradient4483">
      <stop
         style="stop-color:#056aff;stop-opacity:1;"
         offset="0"
         id="stop4485" />
      <stop
         style="stop-color:#ffffff;stop-opacity:0;"
         offset="1"
         id="stop4487" />
    </linearGradient>
    <linearGradient
       inkscape:collect="always"
       xlink:href="#linearGradient3902"
       id="linearGradient3908"
       x1="509.1376"
       y1="513.90118"
       x2="467.15973"
       y2="1029.1136"
       gradientUnits="userSpaceOnUse"
       gradientTransform="matrix(1.2524295,0,0,1.2524296,-146.91309,-129.30104)" />
    <mask
       maskUnits="userSpaceOnUse"
       id="mask4012">
      <rect
         transform="translate(-11,4)"
         clip-path="url(#clipPath4581)"
         style="color:#000000;fill:#ec4d68;fill-opacity:1;fill-rule:nonzero;stroke:none;stroke-width:2;marker:none;visibility:visible;display:inline;overflow:visible;enable-background:accumulate"
         id="rect4014"
         width="1024"
         height="1024"
         x="0"
         y="1.5099033e-14" />
    </mask>
    <clipPath
       clipPathUnits="userSpaceOnUse"
       id="clipPath4581">
      <rect
         y="0"
         x="0"
         height="1024"
         width="1024"
         id="rect4583"
         style="color:#000000;fill:#464040;fill-opacity:1;fill-rule:nonzero;stroke:none;stroke-width:2;marker:none;visibility:visible;display:inline;overflow:visible;enable-background:accumulate" />
    </clipPath>
  </defs>
  <sodipodi:namedview
     id="base"
     pagecolor="#ffffff"
     bordercolor="#666666"
     borderopacity="1.0"
     inkscape:pageopacity="0.0"
     inkscape:pageshadow="2"
     inkscape:zoom="0.71643304"
     inkscape:cx="480.93943"
     inkscape:cy="517.25264"
     inkscape:document-units="px"
     inkscape:current-layer="layer3"
     showgrid="false"
     showguides="false"
     inkscape:guide-bbox="true"
     fit-margin-top="0"
     fit-margin-left="0"
     fit-margin-right="0"
     fit-margin-bottom="0"
     inkscape:window-width="1280"
     inkscape:window-height="1000"
     inkscape:window-x="0"
     inkscape:window-y="24"
     inkscape:window-maximized="1"
     inkscape:showpageshadow="false"
     borderlayer="true"
     showborder="false">
    <sodipodi:guide
       orientation="0,1"
       position="-10.429825,956.71547"
       id="guide3101" />
    <sodipodi:guide
       orientation="1,0"
       position="956.5625,59.8125"
       id="guide3103" />
    <sodipodi:guide
       orientation="0,1"
       position="1246.875,315.625"
       id="guide3105" />
    <sodipodi:guide
       orientation="1,0"
       position="67.351921,64.523494"
       id="guide3107" />
    <sodipodi:guide
       orientation="0,1"
       position="961.5,67.5"
       id="guide3109" />
    <sodipodi:guide
       orientation="1,0"
       position="319.08193,67.707547"
       id="guide3111" />
    <sodipodi:guide
       orientation="1,0"
       position="511.68014,67.707547"
       id="guide3113" />
    <sodipodi:guide
       orientation="1,0"
       position="706.1875,64.734375"
       id="guide3115" />
    <sodipodi:guide
       orientation="0,1"
       position="-21.213203,1024"
       id="guide3117" />
    <sodipodi:guide
       orientation="0,1"
       position="0,0"
       id="guide3119" />
    <sodipodi:guide
       orientation="1,0"
       position="0,1042.6289"
       id="guide3121" />
    <sodipodi:guide
       orientation="0,1"
       position="-6.8942911,705"
       id="guide3123" />
    <sodipodi:guide
       orientation="1,0"
       position="1024,1037.75"
       id="guide3125" />
    <sodipodi:guide
       orientation="0,1"
       position="-27.223611,512.65241"
       id="guide3127" />
    <inkscape:grid
       type="xygrid"
       id="grid4235"
       empspacing="5"
       visible="true"
       enabled="true"
       snapvisiblegridlinesonly="true" />
    <sodipodi:guide
       orientation="1,0"
       position="511.68014,430.8932"
       id="guide4003" />
  </sodipodi:namedview>
  <metadata
     id="metadata7">
    <rdf:RDF>
      <cc:Work
         rdf:about="">
        <dc:format>image/svg+xml</dc:format>
        <dc:type
           rdf:resource="http://purl.org/dc/dcmitype/StillImage" />
        <dc:title></dc:title>
      </cc:Work>
    </rdf:RDF>
  </metadata>
  <g
     inkscape:groupmode="layer"
     id="layer5"
     inkscape:label="Background"
     style="display:inline" />
  <g
     inkscape:groupmode="layer"
     id="layer3"
     inkscape:label="Layer"
     style="display:inline">
    <g
       id="g3051"
       transform="matrix(1.0019569,0,0,1.0233127,-0.06054693,-22.30437)"
       inkscape:export-filename="/home/jair/src/kana/assets/icon/android.png"
       inkscape:export-xdpi="51.200005"
       inkscape:export-ydpi="51.200005">
      <path
         style="fill:#ec4d68;fill-opacity:1;stroke:none"
         d="M 812.37096,914.04929 C 582.9735,955.07293 583.81072,956.74736 583.81072,956.74736 l 88.49379,-75.34954 z"
         id="path3977"
         inkscape:connector-curvature="0"
         sodipodi:nodetypes="cccc" />
      <path
         style="fill:#db929e;fill-opacity:1;stroke:none"
         d="M 814.54335,913.82902 614.77363,747.58397 205.45425,834.70467 z"
         id="path3975"
         inkscape:connector-curvature="0" />
      <path
         style="fill:#db929e;fill-opacity:1;stroke:none"
         d="M 924.81927,223.73039 555.03137,77.250805 601.57917,230.09058 z"
         id="path3973"
         inkscape:connector-curvature="0"
         sodipodi:nodetypes="cccc" />
      <path
         style="fill:#ec4d68;fill-opacity:1;stroke:none"
         d="m 30.939454,228.32431 895.390626,-4.73601 2.85156,544.64174 -722.75427,66.74821 z"
         id="path3971"
         inkscape:connector-curvature="0" />
    </g>
    <g
       style="display:inline"
       id="g4030"
       transform="matrix(0.99804688,0,0,0.99804689,0.99804688,2.0068843)">
      <g
         transform="matrix(0.99358344,-0.11310149,0.11310149,0.99358344,-13.037329,22.570573)"
         style="font-size:16px;font-style:normal;font-variant:normal;font-weight:normal;font-stretch:normal;line-height:125%;letter-spacing:0px;word-spacing:0px;fill:#000000;fill-opacity:0.19607843;stroke:none;font-family:Arial;-inkscape-font-specification:Arial"
         id="g4585">
        <path
           d="m 146.2829,536.10394 c 23.24215,-10.02588 47.50971,-17.8872 72.80273,-23.58398 l 19.48242,-69.72656 67.67579,10.2539 -16.40625,52.97852 c 6.38005,1.7e-4 12.76025,0.34197 19.14062,1.02539 14.35528,1.36736 27.34355,6.38037 38.96484,15.03906 11.84874,8.65901 20.62152,19.59649 26.31836,32.8125 5.69638,13.21626 8.88648,27.00205 9.57032,41.35742 0.91121,14.12768 -0.22811,28.0274 -3.41797,41.69922 -7.06404,28.25522 -18.79905,54.11783 -35.20508,77.58789 l -66.99219,-8.88672 c 10.70949,-18.6849 20.39372,-38.05337 29.05274,-58.10547 3.64566,-10.93745 6.15216,-22.21674 7.51953,-33.83789 1.36701,-11.62101 0.11375,-23.01423 -3.75977,-34.17968 -3.87387,-11.39312 -12.19091,-18.57085 -24.95117,-21.53321 -3.64598,-0.68347 -7.6336,-1.02526 -11.96289,-1.02539 L 225.92157,715.5473 164.39813,706.66058 201.65399,574.0434 c -13.67192,4.78525 -27.00199,10.02613 -39.99023,15.72265 L 146.2829,536.10394 m 340.08789,-19.14062 -48.53516,48.53515 c -18.45731,-26.20428 -38.05365,-51.38329 -58.78906,-75.53711 -20.0523,-23.0141 -39.8765,-46.25627 -59.47266,-69.72656 l 44.77539,-41.69922 c 18.00106,18.00159 35.54662,36.34467 52.63672,55.0293 23.69762,27.34397 46.82585,55.14342 69.38477,83.39844"
           style="font-size:350px;text-align:center;line-height:125%;writing-mode:lr-tb;text-anchor:middle;fill:#000000;fill-opacity:0.19607843;font-family:Keifont;-inkscape-font-specification:Keifont"
           id="path4587"
           inkscape:connector-curvature="0" />
        <path
           d="m 500.72626,444.16058 73.48633,-1.36718 16.06445,-56.39649 57.08008,4.78516 -13.67188,50.24414 45.11719,-0.6836 -6.15234,59.13086 -54.00391,0.6836 -36.57227,157.91015 -59.47265,-5.81054 35.88867,-150.04883 -55.37109,-0.68359 -2.39258,-57.76368 m 264.20898,-32.4707 50.24414,26.31836 -48.87695,68.35937 -46.14258,-23.24218 44.77539,-71.43555 m -71.43555,96.72852 51.95313,1.36718 c 1.36693,21.64729 2.73411,43.2944 4.10156,64.94141 27.79919,4.55739 55.37078,10.93759 82.71485,19.14062 l -21.19141,54.34571 c -20.05239,-7.51949 -40.33231,-14.46936 -60.83984,-20.84961 -2.7e-4,13.89978 -0.68386,25.97659 -2.05079,36.23047 -2.50676,15.26693 -9.45663,27.79947 -20.8496,37.59765 -11.1656,9.79815 -24.2678,15.03903 -39.30665,15.72266 -10.70982,0.91142 -21.30551,-0.11397 -31.7871,-3.07617 -10.25407,-2.73441 -19.36864,-7.74742 -27.34375,-15.03906 -7.9754,-7.29168 -13.67201,-16.06446 -17.08985,-26.31836 -3.41809,-10.25389 -5.12707,-20.62172 -5.12695,-31.10352 0.45561,-15.03901 5.69649,-27.79941 15.72265,-38.28125 10.25377,-10.48168 22.10271,-18.11514 35.54688,-22.90039 13.44383,-5.01292 27.34355,-7.86122 41.69922,-8.54492 -1.82313,-20.96341 -3.87391,-42.04087 -6.15235,-63.23242 m 7.17774,142.87109 c 0.91124,-11.16532 1.25304,-22.44461 1.02539,-33.83789 -5.01323,0.22793 -9.79838,0.45579 -14.35547,0.68359 -4.55749,0.22793 -9.11477,1.25332 -13.67187,3.07617 -4.55748,1.59511 -8.08937,4.44342 -10.59571,8.54493 -2.27882,4.10161 -3.30421,8.43103 -3.07617,12.98828 -1.36736,7.06383 -0.1141,13.6719 3.75977,19.82422 3.87351,6.15235 9.57012,8.88672 17.08984,8.20312 3.41777,-0.45572 6.72181,-1.25324 9.91211,-2.39258 3.41776,-1.36717 5.81034,-3.64581 7.17773,-6.83593 1.36698,-3.41795 2.27844,-6.83592 2.73438,-10.25391"
           style="font-size:350px;text-align:center;line-height:125%;writing-mode:lr-tb;text-anchor:middle;fill:#000000;fill-opacity:0.19607843;font-family:Keifont;-inkscape-font-specification:Keifont"
           id="path4589"
           inkscape:connector-curvature="0" />
      </g>
      <g
         id="text3953"
         style="font-size:16px;font-style:normal;font-variant:normal;font-weight:normal;font-stretch:normal;line-height:125%;letter-spacing:0px;word-spacing:0px;fill:#fef9fd;fill-opacity:1;stroke:none;font-family:Arial;-inkscape-font-specification:Arial"
         transform="matrix(0.99358344,-0.11310149,0.11310149,0.99358344,-28.037329,7.570573)">
        <path
           inkscape:connector-curvature="0"
           id="path4548"
           style="font-size:350px;text-align:center;line-height:125%;writing-mode:lr-tb;text-anchor:middle;fill:#fef9fd;font-family:Keifont;-inkscape-font-specification:Keifont"
           d="m 146.2829,536.10394 c 23.24215,-10.02588 47.50971,-17.8872 72.80273,-23.58398 l 19.48242,-69.72656 67.67579,10.2539 -16.40625,52.97852 c 6.38005,1.7e-4 12.76025,0.34197 19.14062,1.02539 14.35528,1.36736 27.34355,6.38037 38.96484,15.03906 11.84874,8.65901 20.62152,19.59649 26.31836,32.8125 5.69638,13.21626 8.88648,27.00205 9.57032,41.35742 0.91121,14.12768 -0.22811,28.0274 -3.41797,41.69922 -7.06404,28.25522 -18.79905,54.11783 -35.20508,77.58789 l -66.99219,-8.88672 c 10.70949,-18.6849 20.39372,-38.05337 29.05274,-58.10547 3.64566,-10.93745 6.15216,-22.21674 7.51953,-33.83789 1.36701,-11.62101 0.11375,-23.01423 -3.75977,-34.17968 -3.87387,-11.39312 -12.19091,-18.57085 -24.95117,-21.53321 -3.64598,-0.68347 -7.6336,-1.02526 -11.96289,-1.02539 L 225.92157,715.5473 164.39813,706.66058 201.65399,574.0434 c -13.67192,4.78525 -27.00199,10.02613 -39.99023,15.72265 L 146.2829,536.10394 m 340.08789,-19.14062 -48.53516,48.53515 c -18.45731,-26.20428 -38.05365,-51.38329 -58.78906,-75.53711 -20.0523,-23.0141 -39.8765,-46.25627 -59.47266,-69.72656 l 44.77539,-41.69922 c 18.00106,18.00159 35.54662,36.34467 52.63672,55.0293 23.69762,27.34397 46.82585,55.14342 69.38477,83.39844" />
        <path
           inkscape:connector-curvature="0"
           id="path4550"
           style="font-size:350px;text-align:center;line-height:125%;writing-mode:lr-tb;text-anchor:middle;fill:#fef9fd;font-family:Keifont;-inkscape-font-specification:Keifont"
           d="m 500.72626,444.16058 73.48633,-1.36718 16.06445,-56.39649 57.08008,4.78516 -13.67188,50.24414 45.11719,-0.6836 -6.15234,59.13086 -54.00391,0.6836 -36.57227,157.91015 -59.47265,-5.81054 35.88867,-150.04883 -55.37109,-0.68359 -2.39258,-57.76368 m 264.20898,-32.4707 50.24414,26.31836 -48.87695,68.35937 -46.14258,-23.24218 44.77539,-71.43555 m -71.43555,96.72852 51.95313,1.36718 c 1.36693,21.64729 2.73411,43.2944 4.10156,64.94141 27.79919,4.55739 55.37078,10.93759 82.71485,19.14062 l -21.19141,54.34571 c -20.05239,-7.51949 -40.33231,-14.46936 -60.83984,-20.84961 -2.7e-4,13.89978 -0.68386,25.97659 -2.05079,36.23047 -2.50676,15.26693 -9.45663,27.79947 -20.8496,37.59765 -11.1656,9.79815 -24.2678,15.03903 -39.30665,15.72266 -10.70982,0.91142 -21.30551,-0.11397 -31.7871,-3.07617 -10.25407,-2.73441 -19.36864,-7.74742 -27.34375,-15.03906 -7.9754,-7.29168 -13.67201,-16.06446 -17.08985,-26.31836 -3.41809,-10.25389 -5.12707,-20.62172 -5.12695,-31.10352 0.45561,-15.03901 5.69649,-27.79941 15.72265,-38.28125 10.25377,-10.48168 22.10271,-18.11514 35.54688,-22.90039 13.44383,-5.01292 27.34355,-7.86122 41.69922,-8.54492 -1.82313,-20.96341 -3.87391,-42.04087 -6.15235,-63.23242 m 7.17774,142.87109 c 0.91124,-11.16532 1.25304,-22.44461 1.02539,-33.83789 -5.01323,0.22793 -9.79838,0.45579 -14.35547,0.68359 -4.55749,0.22793 -9.11477,1.25332 -13.67187,3.07617 -4.55748,1.59511 -8.08937,4.44342 -10.59571,8.54493 -2.27882,4.10161 -3.30421,8.43103 -3.07617,12.98828 -1.36736,7.06383 -0.1141,13.6719 3.75977,19.82422 3.87351,6.15235 9.57012,8.88672 17.08984,8.20312 3.41777,-0.45572 6.72181,-1.25324 9.91211,-2.39258 3.41776,-1.36717 5.81034,-3.64581 7.17773,-6.83593 1.36698,-3.41795 2.27844,-6.83592 2.73438,-10.25391" />
      </g>
    </g>
  </g>
</svg>
